HIERARCHY
ROOT Hips
{
	OFFSET 0.053599 88.859886 3.107447
	CHANNELS 6 Xposition Yposition Zposition Zrotation Yrotation Xrotation 
	JOINT Spine
	{
		OFFSET -0.000000 8.814246 -2.080107
		CHANNELS 3 Zrotation Yrotation Xrotation
		JOINT Spine1
		{
			OFFSET 0.000000 8.844141 0.000000
			CHANNELS 3 Zrotation Yrotation Xrotation
			JOINT Spine2
			{
				OFFSET -0.000000 11.682268 0.000000
				CHANNELS 3 Zrotation Yrotation Xrotation
				JOINT Spine3
				{
					OFFSET 0.000000 11.746700 0.000000
					CHANNELS 3 Zrotation Yrotation Xrotation
					JOINT Neck
					{
						OFFSET -0.000000 17.658264 -0.000000
						CHANNELS 3 Zrotation Yrotation Xrotation
						JOINT Neck1
						{
							OFFSET -0.000000 5.101515 -0.000000
							CHANNELS 3 Zrotation Yrotation Xrotation
							JOINT Head
							{
								OFFSET 0.000000 5.101515 0.000000
								CHANNELS 3 Zrotation Yrotation Xrotation
								JOINT HeadEnd
								{
									OFFSET 0.000000 11.655085 0.000000
									CHANNELS 3 Zrotation Yrotation Xrotation
									End Site
									{
										OFFSET 0.000000 0.000000 0.000000
									}
								}
							}
						}
					}
					JOINT RightShoulder
					{
						OFFSET -2.625389 11.175210 0.000000
						CHANNELS 3 Zrotation Yrotation Xrotation
						JOINT RightArm
						{
							OFFSET -0.000000 10.434715 -0.000000
							CHANNELS 3 Zrotation Yrotation Xrotation
							JOINT RightForeArm
							{
								OFFSET -0.000000 29.628420 0.000000
								CHANNELS 3 Zrotation Yrotation Xrotation
								JOINT RightHand
								{
									OFFSET -0.000000 22.857611 0.000000
									CHANNELS 3 Zrotation Yrotation Xrotation
									JOINT RightHandThumb1
									{
										OFFSET -2.867323 3.959563 2.944291
										CHANNELS 3 Zrotation Yrotation Xrotation
										JOINT RightHandThumb2
										{
											OFFSET 0.000000 3.350399 0.000000
											CHANNELS 3 Zrotation Yrotation Xrotation
											JOINT RightHandThumb3
											{
												OFFSET 0.000000 3.756509 -0.000000
												CHANNELS 3 Zrotation Yrotation Xrotation
												JOINT RightHandThumb4
												{
													OFFSET 0.000000 3.147345 0.000000
													CHANNELS 3 Zrotation Yrotation Xrotation
													End Site
													{
														OFFSET 0.000000 0.000000 0.000000
													}
												}
											}
										}
									}
									JOINT RightHandIndex1
									{
										OFFSET -0.086752 10.030893 2.345280
										CHANNELS 3 Zrotation Yrotation Xrotation
										JOINT RightHandIndex2
										{
											OFFSET -0.000000 4.061090 0.000000
											CHANNELS 3 Zrotation Yrotation Xrotation
											JOINT RightHandIndex3
											{
												OFFSET -0.000000 3.248873 0.000000
												CHANNELS 3 Zrotation Yrotation Xrotation
												JOINT RightHandIndex4
												{
													OFFSET 0.000000 2.639709 -0.000000
													CHANNELS 3 Zrotation Yrotation Xrotation
													End Site
													{
														OFFSET 0.000000 0.000000 0.000000
													}
												}
											}
										}
									}
									JOINT RightHandMiddle1
									{
										OFFSET 0.104102 9.502952 0.006768
										CHANNELS 3 Zrotation Yrotation Xrotation
										JOINT RightHandMiddle2
										{
											OFFSET 0.000000 4.568727 0.000000
											CHANNELS 3 Zrotation Yrotation Xrotation
											JOINT RightHandMiddle3
											{
												OFFSET 0.000000 3.654981 -0.000000
												CHANNELS 3 Zrotation Yrotation Xrotation
												JOINT RightHandMiddle4
												{
													OFFSET -0.000000 2.741236 -0.000000
													CHANNELS 3 Zrotation Yrotation Xrotation
													End Site
													{
														OFFSET 0.000000 0.000000 0.000000
													}
												}
											}
										}
									}
									JOINT RightHandRing1
									{
										OFFSET 0.086752 8.921708 -2.267442
										CHANNELS 3 Zrotation Yrotation Xrotation
										JOINT RightHandRing2
										{
											OFFSET -0.000000 4.061090 0.000000
											CHANNELS 3 Zrotation Yrotation Xrotation
											JOINT RightHandRing3
											{
												OFFSET 0.000000 3.654981 -0.000000
												CHANNELS 3 Zrotation Yrotation Xrotation
												JOINT RightHandRing4
												{
													OFFSET 0.000000 2.741236 -0.000000
													CHANNELS 3 Zrotation Yrotation Xrotation
													End Site
													{
														OFFSET 0.000000 0.000000 0.000000
													}
												}
											}
										}
									}
									JOINT RightHandPinky1
									{
										OFFSET -0.173504 7.976997 -4.467199
										CHANNELS 3 Zrotation Yrotation Xrotation
										JOINT RightHandPinky2
										{
											OFFSET 0.000000 3.350399 -0.000000
											CHANNELS 3 Zrotation Yrotation Xrotation
											JOINT RightHandPinky3
											{
												OFFSET -0.000000 2.842763 0.000000
												CHANNELS 3 Zrotation Yrotation Xrotation
												JOINT RightHandPinky4
												{
													OFFSET -0.000000 2.639709 0.000000
													CHANNELS 3 Zrotation Yrotation Xrotation
													End Site
													{
														OFFSET 0.000000 0.000000 0.000000
													}
												}
											}
										}
									}
									JOINT RightForeArmEnd
									{
										OFFSET 0.000000 0.000000 0.000000
										CHANNELS 3 Zrotation Yrotation Xrotation
										End Site
										{
											OFFSET 0.000000 0.000000 0.000000
										}
									}
								}
								JOINT RightArmEnd
								{
									OFFSET 0.000000 0.000000 0.000000
									CHANNELS 3 Zrotation Yrotation Xrotation
									End Site
									{
										OFFSET 0.000000 0.000000 0.000000
									}
								}
							}
						}
					}
					JOINT LeftShoulder
					{
						OFFSET 2.625389 11.175210 0.000000
						CHANNELS 3 Zrotation Yrotation Xrotation
						JOINT LeftArm
						{
							OFFSET 0.000000 10.813635 -0.000000
							CHANNELS 3 Zrotation Yrotation Xrotation
							JOINT LeftForeArm
							{
								OFFSET 0.000000 28.724781 0.000000
								CHANNELS 3 Zrotation Yrotation Xrotation
								JOINT LeftHand
								{
									OFFSET 0.644384 25.716167 -0.328871
									CHANNELS 3 Zrotation Yrotation Xrotation
									JOINT LeftHandThumb1
									{
										OFFSET 2.867323 3.959563 2.944291
										CHANNELS 3 Zrotation Yrotation Xrotation
										JOINT LeftHandThumb2
										{
											OFFSET 0.000000 3.350399 0.000000
											CHANNELS 3 Zrotation Yrotation Xrotation
											JOINT LeftHandThumb3
											{
												OFFSET -0.000000 3.756509 0.000000
												CHANNELS 3 Zrotation Yrotation Xrotation
												JOINT LeftHandThumb4
												{
													OFFSET -0.000000 3.100000 0.000000
													CHANNELS 3 Zrotation Yrotation Xrotation
													End Site
													{
														OFFSET 0.000000 0.000000 0.000000
													}
												}
											}
										}
									}
									JOINT LeftHandIndex1
									{
										OFFSET 0.086752 10.030893 2.345280
										CHANNELS 3 Zrotation Yrotation Xrotation
										JOINT LeftHandIndex2
										{
											OFFSET -0.000000 4.061090 -0.000000
											CHANNELS 3 Zrotation Yrotation Xrotation
											JOINT LeftHandIndex3
											{
												OFFSET 0.000000 3.248873 -0.000000
												CHANNELS 3 Zrotation Yrotation Xrotation
												JOINT LeftHandIndex4
												{
													OFFSET 0.000000 2.639709 -0.000000
													CHANNELS 3 Zrotation Yrotation Xrotation
													End Site
													{
														OFFSET 0.000000 0.000000 0.000000
													}
												}
											}
										}
									}
									JOINT LeftHandMiddle1
									{
										OFFSET -0.104102 9.502952 0.006768
										CHANNELS 3 Zrotation Yrotation Xrotation
										JOINT LeftHandMiddle2
										{
											OFFSET -0.000000 4.568727 -0.000000
											CHANNELS 3 Zrotation Yrotation Xrotation
											JOINT LeftHandMiddle3
											{
												OFFSET 0.000000 3.654981 0.000000
												CHANNELS 3 Zrotation Yrotation Xrotation
												JOINT LeftHandMiddle4
												{
													OFFSET 0.000000 2.741236 -0.000000
													CHANNELS 3 Zrotation Yrotation Xrotation
													End Site
													{
														OFFSET 0.000000 0.000000 0.000000
													}
												}
											}
										}
									}
									JOINT LeftHandRing1
									{
										OFFSET -0.086752 8.921708 -2.267442
										CHANNELS 3 Zrotation Yrotation Xrotation
										JOINT LeftHandRing2
										{
											OFFSET 0.000000 4.061090 0.000000
											CHANNELS 3 Zrotation Yrotation Xrotation
											JOINT LeftHandRing3
											{
												OFFSET 0.000000 3.654981 0.000000
												CHANNELS 3 Zrotation Yrotation Xrotation
												JOINT LeftHandRing4
												{
													OFFSET 0.000000 2.741236 0.000000
													CHANNELS 3 Zrotation Yrotation Xrotation
													End Site
													{
														OFFSET 0.000000 0.000000 0.000000
													}
												}
											}
										}
									}
									JOINT LeftHandPinky1
									{
										OFFSET 0.173504 7.976997 -4.467199
										CHANNELS 3 Zrotation Yrotation Xrotation
										JOINT LeftHandPinky2
										{
											OFFSET -0.000000 3.350399 -0.000000
											CHANNELS 3 Zrotation Yrotation Xrotation
											JOINT LeftHandPinky3
											{
												OFFSET 0.000000 2.842763 0.000000
												CHANNELS 3 Zrotation Yrotation Xrotation
												JOINT LeftHandPinky4
												{
													OFFSET -0.000000 2.639709 -0.000000
													CHANNELS 3 Zrotation Yrotation Xrotation
													End Site
													{
														OFFSET 0.000000 0.000000 0.000000
													}
												}
											}
										}
									}
									JOINT LeftForeArmEnd
									{
										OFFSET 0.000000 0.000000 0.000000
										CHANNELS 3 Zrotation Yrotation Xrotation
										End Site
										{
											OFFSET 0.000000 0.000000 0.000000
										}
									}
								}
								JOINT LeftArmEnd
								{
									OFFSET 0.000000 0.000000 0.000000
									CHANNELS 3 Zrotation Yrotation Xrotation
									End Site
									{
										OFFSET 0.000000 0.000000 0.000000
									}
								}
							}
						}
					}
				}
			}
		}
	}
	JOINT RightUpLeg
	{
		OFFSET -11.289943 0.000000 0.000000
		CHANNELS 3 Zrotation Yrotation Xrotation
		JOINT RightLeg
		{
			OFFSET 0.000000 -38.200325 0.000000
			CHANNELS 3 Zrotation Yrotation Xrotation
			JOINT RightFoot
			{
				OFFSET -0.000000 -39.900856 -0.000000
				CHANNELS 3 Zrotation Yrotation Xrotation
				JOINT RightToeBase
				{
					OFFSET 0.000000 0.000000 15.261641
					CHANNELS 3 Zrotation Yrotation Xrotation
					JOINT RightToeBaseEnd
					{
						OFFSET 0.000000 0.000000 7.370709
						CHANNELS 3 Zrotation Yrotation Xrotation
						End Site
						{
							OFFSET 0.000000 0.000000 0.000000
						}
					}
				}
				JOINT RightLegEnd
				{
					OFFSET 0.000000 0.000000 0.000000
					CHANNELS 3 Zrotation Yrotation Xrotation
					End Site
					{
						OFFSET 0.000000 0.000000 0.000000
					}
				}
			}
			JOINT RightUpLegEnd
			{
				OFFSET 0.000000 0.000000 0.000000
				CHANNELS 3 Zrotation Yrotation Xrotation
				End Site
				{
					OFFSET 0.000000 0.000000 0.000000
				}
			}
		}
	}
	JOINT LeftUpLeg
	{
		OFFSET 11.315661 -0.000000 0.000000
		CHANNELS 3 Zrotation Yrotation Xrotation
		JOINT LeftLeg
		{
			OFFSET -0.000000 -38.200325 -0.000000
			CHANNELS 3 Zrotation Yrotation Xrotation
			JOINT LeftFoot
			{
				OFFSET 0.000000 -39.900856 -0.000000
				CHANNELS 3 Zrotation Yrotation Xrotation
				JOINT LeftToeBase
				{
					OFFSET -0.000000 -0.000000 15.261641
					CHANNELS 3 Zrotation Yrotation Xrotation
					JOINT LeftToeBaseEnd
					{
						OFFSET 0.000000 -0.000000 7.539996
						CHANNELS 3 Zrotation Yrotation Xrotation
						End Site
						{
							OFFSET 0.000000 0.000000 0.000000
						}
					}
				}
				JOINT LeftLegEnd
				{
					OFFSET 0.000000 0.000000 0.000000
					CHANNELS 3 Zrotation Yrotation Xrotation
					End Site
					{
						OFFSET 0.000000 0.000000 0.000000
					}
				}
			}
			JOINT LeftUpLegEnd
			{
				OFFSET 0.000000 0.000000 0.000000
				CHANNELS 3 Zrotation Yrotation Xrotation
				End Site
				{
					OFFSET 0.000000 0.000000 0.000000
				}
			}
		}
	}
}
MOTION
Frames: 4
Frame Time: 0.016667
0.419969 88.621864 3.437621 -0.356996 -1.502021 -11.367325 1.255084 0.058089 7.497334 -1.083029 0.195658 2.495017 0.504779 -0.869271 4.911243 -1.133111 0.114571 4.326375 0.465354 0.976241 3.823485 0.308177 0.839030 -3.357697 -0.438152 -1.115669 -18.792585 0.000000 0.000000 0.000000 91.358978 -0.008287 10.802680 67.777596 -27.161655 4.967155 -0.315804 17.890448 45.991997 2.158978 3.464987 -7.525674 20.565277 29.890297 61.276859 -9.185988 -13.736316 -22.854465 -6.886719 -9.025537 -15.864813 0.000000 0.000000 0.000000 17.740889 -11.683209 -0.136218 13.141753 0.191221 1.752570 12.835570 -0.219072 1.723758 0.000000 0.000000 0.000000 16.241346 -6.208990 -0.771947 11.663830 0.382237 0.685572 12.226915 -0.099217 0.607570 0.000000 0.000000 0.000000 16.059128 1.579469 -1.075607 12.089622 -0.820611 -1.043738 12.032174 0.117020 -0.752334 0.000000 0.000000 0.000000 14.273928 10.124617 -2.218515 11.268961 -1.466202 -2.935605 11.126854 0.384598 -2.472281 0.000000 0.000000 0.000000 0.000000 0.000000 0.000000 0.000000 0.000000 0.000000 -88.515602 -0.098886 5.416605 -74.155922 16.384319 -7.178020 -0.415460 -14.923073 64.744865 -2.166560 -7.179416 -12.106553 -21.830536 -29.541843 59.929047 10.475388 16.288000 -26.673058 7.965676 10.879628 -18.744789 0.000000 0.000000 0.000000 -29.979679 -3.225559 -1.138071 -19.564495 0.094723 -2.016816 -19.313835 -0.355052 -1.865536 0.000000 0.000000 0.000000 -29.084303 1.583109 -1.839902 -19.211201 0.307719 -0.877677 -19.274258 -0.155217 -0.735932 0.000000 0.000000 0.000000 -31.279072 9.290867 -2.572553 -20.753519 -0.701387 1.301609 -20.734732 0.204458 0.992843 0.000000 0.000000 0.000000 -31.812906 17.212049 -3.659587 -20.946787 -1.128444 3.956027 -20.791904 0.724633 3.351416 0.000000 0.000000 0.000000 0.000000 0.000000 0.000000 0.000000 0.000000 0.000000 -0.341208 -9.486545 15.414131 -0.055075 -0.655161 5.000302 -3.366082 -7.130463 16.923618 -0.873734 0.852363 -17.929127 0.000000 0.000000 0.000000 0.000000 0.000000 0.000000 0.000000 0.000000 0.000000 -1.335430 -6.208706 10.151104 0.073437 0.376968 10.467047 3.863340 -1.521734 16.069105 0.230428 -0.396531 -20.450327 0.000000 0.000000 0.000000 0.000000 0.000000 0.000000 0.000000 0.000000 0.000000 
0.426556 88.612526 3.434144 -0.336708 -1.502176 -11.366439 1.266786 0.056423 7.519149 -1.048764 0.186544 2.458622 0.460082 -0.831429 4.914956 -1.161783 0.123402 4.272978 0.372738 0.991741 3.839531 0.302635 0.826075 -3.362348 -0.439854 -1.118280 -18.815390 0.000000 0.000000 0.000000 91.336021 -0.008993 10.834202 67.733551 -27.416595 4.867334 -0.326122 17.684917 46.297554 2.115143 3.009789 -7.600370 20.561937 29.891512 61.287857 -9.178828 -13.714119 -22.825853 -6.882137 -9.017220 -15.844660 0.000000 0.000000 0.000000 17.705822 -11.673500 -0.211924 13.095122 0.196797 1.732049 12.787685 -0.213306 1.704755 0.000000 0.000000 0.000000 16.211096 -6.202654 -0.847195 11.613667 0.384215 0.679082 12.183062 -0.097550 0.600977 0.000000 0.000000 0.000000 16.072306 1.574138 -1.133126 12.062233 -0.823855 -1.034409 12.008560 0.114160 -0.745904 0.000000 0.000000 0.000000 14.295799 10.112312 -2.271324 11.264750 -1.474257 -2.911170 11.123258 0.376096 -2.452707 0.000000 0.000000 0.000000 0.000000 0.000000 0.000000 0.000000 0.000000 0.000000 -88.511429 -0.104424 5.403479 -74.107872 16.409210 -7.094961 -0.426689 -14.701628 64.566429 -2.216136 -6.989739 -12.282573 -21.623297 -29.586496 60.113831 10.318559 15.870996 -26.085146 7.821237 10.608947 -18.332422 0.000000 0.000000 0.000000 -28.463717 -3.467618 -0.874237 -18.482599 0.113934 -1.975033 -18.234968 -0.335375 -1.826220 0.000000 0.000000 0.000000 -27.593670 1.349701 -1.718805 -18.132601 0.316814 -0.860209 -18.194258 -0.147639 -0.721550 0.000000 0.000000 0.000000 -29.796013 9.070029 -2.605845 -19.670313 -0.715438 1.277812 -19.656984 0.194331 0.975011 0.000000 0.000000 0.000000 -30.460945 17.026093 -3.889642 -19.945028 -1.166997 3.890236 -19.798483 0.691813 3.299694 0.000000 0.000000 0.000000 0.000000 0.000000 0.000000 0.000000 0.000000 0.000000 -0.378114 -9.508305 15.408940 -0.055012 -0.657225 5.020345 -3.351226 -7.076591 16.909048 -0.874013 0.852586 -17.940775 0.000000 0.000000 0.000000 0.000000 0.000000 0.000000 0.000000 0.000000 0.000000 -1.371385 -6.223818 10.112584 0.074477 0.380537 10.534358 3.862159 -1.538118 16.050961 0.226235 -0.398646 -20.492762 0.000000 0.000000 0.000000 0.000000 0.000000 0.000000 0.000000 0.000000 0.000000 
0.433872 88.603104 3.433527 -0.312968 -1.492187 -11.370503 1.276279 0.052704 7.537961 -1.011571 0.173984 2.425722 0.404514 -0.796966 4.921791 -1.190510 0.128044 4.227198 0.267679 1.004946 3.867979 0.296365 0.810129 -3.361678 -0.440242 -1.119705 -18.840174 0.000000 0.000000 0.000000 91.305428 -0.011670 10.868650 67.672302 -27.704607 4.757030 -0.340218 17.473116 46.619614 2.123679 2.611904 -7.681895 20.557775 29.893452 61.301121 -9.168881 -13.688287 -22.791754 -6.875816 -9.007242 -15.819734 0.000000 0.000000 0.000000 17.676334 -11.666745 -0.275169 13.055672 0.201874 1.712015 12.745655 -0.208066 1.686184 0.000000 0.000000 0.000000 16.189947 -6.197535 -0.918200 11.568655 0.386207 0.672896 12.145154 -0.095866 0.594452 0.000000 0.000000 0.000000 16.089914 1.569250 -1.199036 12.029963 -0.826793 -1.025288 11.981651 0.111533 -0.739538 0.000000 0.000000 0.000000 14.316579 10.101413 -2.342604 11.246558 -1.480927 -2.887159 11.107118 0.368772 -2.433544 0.000000 0.000000 0.000000 0.000000 0.000000 0.000000 0.000000 0.000000 0.000000 -88.494537 -0.109293 5.399455 -74.059921 16.408672 -7.007030 -0.446098 -14.482105 64.350563 -2.311969 -6.824712 -12.518102 -21.409567 -29.636818 60.311249 10.141956 15.435895 -25.467115 7.664368 10.327928 -17.898201 0.000000 0.000000 0.000000 -26.880898 -3.732681 -0.575424 -17.369478 0.132184 -1.931394 -17.123062 -0.316645 -1.786539 0.000000 0.000000 0.000000 -26.029531 1.097620 -1.579281 -17.022722 0.325690 -0.841972 -17.084375 -0.140368 -0.706408 0.000000 0.000000 0.000000 -28.233574 8.836928 -2.643775 -18.548323 -0.729171 1.252453 -18.540882 0.184525 0.955891 0.000000 0.000000 0.000000 -29.035492 16.837955 -4.144156 -18.906950 -1.204579 3.817512 -18.765503 0.660327 3.243073 0.000000 0.000000 0.000000 0.000000 0.000000 0.000000 0.000000 0.000000 0.000000 -0.421236 -9.527490 15.405622 -0.055079 -0.659348 5.049701 -3.333409 -7.025425 16.887486 -0.875712 0.852526 -17.948246 0.000000 0.000000 0.000000 0.000000 0.000000 0.000000 0.000000 0.000000 0.000000 -1.411071 -6.235276 10.083988 0.075249 0.383917 10.603298 3.857571 -1.550308 16.028948 0.222360 -0.401805 -20.533894 0.000000 0.000000 0.000000 0.000000 0.000000 0.000000 0.000000 0.000000 0.000000 
0.442372 88.595512 3.435044 -0.285595 -1.473668 -11.377095 1.282890 0.046965 7.553466 -0.970565 0.156767 2.396193 0.338409 -0.765560 4.930874 -1.215810 0.128068 4.187893 0.147481 1.019352 3.900389 0.289165 0.792883 -3.360927 -0.439738 -1.119230 -18.864574 0.000000 0.000000 0.000000 91.259476 -0.015563 10.907537 67.595085 -28.022425 4.639946 -0.359573 17.264360 46.982227 2.198463 2.274603 -7.776249 20.548784 29.897404 61.319878 -9.152142 -13.652647 -22.742573 -6.864604 -8.990644 -15.782023 0.000000 0.000000 0.000000 17.643845 -11.662595 -0.330079 13.030740 0.205626 1.694296 12.716660 -0.204180 1.669676 0.000000 0.000000 0.000000 16.168362 -6.192356 -0.990236 11.533782 0.387910 0.667735 12.118670 -0.094467 0.588602 0.000000 0.000000 0.000000 16.102631 1.566865 -1.282427 11.992709 -0.828960 -1.017267 11.951683 0.109488 -0.733889 0.000000 0.000000 0.000000 14.324991 10.093953 -2.448011 11.209558 -1.484909 -2.865478 11.073906 0.363726 -2.416789 0.000000 0.000000 0.000000 0.000000 0.000000 0.000000 0.000000 0.000000 0.000000 -88.453697 -0.115249 5.408637 -74.035049 16.390812 -6.922274 -0.469910 -14.272786 64.149414 -2.473680 -6.645601 -12.827988 -21.185024 -29.694126 60.525288 9.940581 14.975230 -24.806932 7.491535 10.031442 -17.432741 0.000000 0.000000 0.000000 -25.235321 -4.019655 -0.253158 -16.245689 0.149119 -1.886912 -15.998053 -0.299156 -1.747307 0.000000 0.000000 0.000000 -24.388193 0.826600 -1.432770 -15.898381 0.334223 -0.823284 -15.960459 -0.133415 -0.690610 0.000000 0.000000 0.000000 -26.580666 8.588668 -2.703245 -17.393187 -0.742369 1.225294 -17.391951 0.175126 0.935182 0.000000 0.000000 0.000000 -27.516487 16.641972 -4.442891 -17.829927 -1.240991 3.735663 -17.689520 0.630242 3.179475 0.000000 0.000000 0.000000 0.000000 0.000000 0.000000 0.000000 0.000000 0.000000 -0.470499 -9.546607 15.401152 -0.055297 -0.661551 5.086188 -3.311988 -6.979270 16.861664 -0.879196 0.852183 -17.951998 0.000000 0.000000 0.000000 0.000000 0.000000 0.000000 0.000000 0.000000 0.000000 -1.453306 -6.243028 10.060854 0.075642 0.386790 10.673470 3.850873 -1.558484 16.010973 0.218828 -0.405406 -20.574793 0.000000 0.000000 0.000000 0.000000 0.000000 0.000000 0.000000 0.000000 0.000000 
